<?xml version="1.0" standalone="no"?>
<!DOCTYPE svg PUBLIC "-//W3C//DTD SVG 20010904//EN"
 "http://www.w3.org/TR/2001/REC-SVG-20010904/DTD/svg10.dtd">
<svg version="1.0" xmlns="http://www.w3.org/2000/svg"
 width="500.000000pt" height="500.000000pt" viewBox="0 0 500.000000 500.000000"
 preserveAspectRatio="xMidYMid meet">
<metadata>
Created by potrace 1.11, written by Peter Selinger 2001-2013
</metadata>
<g transform="translate(0.000000,500.000000) scale(0.100000,-0.100000)"
fill="#000000" stroke="none">
<path d="M1526 4763 c-5 -17 -82 -340 -126 -528 -12 -49 -23 -98 -26 -107 -2
-10 -6 -26 -8 -35 -2 -10 -18 -74 -35 -143 -41 -172 -102 -422 -106 -440 -2
-8 -18 -73 -35 -145 -17 -71 -33 -137 -35 -145 -24 -104 -57 -245 -140 -588
-25 -101 -47 -193 -49 -205 -4 -20 -46 -197 -111 -462 -13 -55 -42 -176 -65
-270 -22 -93 -43 -181 -47 -195 -3 -14 -7 -31 -9 -39 -2 -8 -5 -25 -9 -38 l-5
-23 1328 0 1328 0 12 48 c12 50 37 157 72 312 18 76 90 388 115 497 l5 21
-311 0 c-170 0 -313 2 -316 5 -3 3 0 28 6 54 6 26 14 58 16 70 9 40 13 57 30
123 10 36 30 121 46 190 16 69 32 134 34 145 3 11 8 33 11 49 2 16 7 32 9 36
2 3 6 17 8 31 3 13 10 44 17 69 7 25 13 52 15 60 2 8 11 47 20 85 9 39 18 77
20 85 2 8 17 74 35 145 17 72 37 156 45 188 l13 57 -441 -2 c-286 -2 -442 -7
-443 -13 0 -5 -3 -23 -7 -40 -4 -16 -9 -39 -12 -50 -2 -11 -9 -38 -15 -60 -10
-41 -129 -538 -135 -565 -13 -60 -157 -656 -159 -658 -3 -3 -134 -5 -210 -3
-47 1 -48 1 -41 29 4 15 9 35 11 45 2 9 6 25 8 35 2 9 18 73 35 142 16 69 46
193 66 275 20 83 38 157 40 165 2 8 13 53 23 100 24 104 127 532 148 615 9 33
18 71 20 85 3 14 11 50 19 80 8 30 17 69 21 85 4 17 8 35 10 40 84 350 148
618 154 645 4 19 15 63 23 98 l15 62 -438 0 c-409 0 -439 -1 -444 -17z"/>
<path d="M3096 1160 l-1298 -5 -18 -70 c-17 -72 -22 -91 -115 -480 -30 -126
-59 -246 -65 -266 -5 -20 -10 -39 -10 -43 0 -9 2660 -8 2660 2 0 6 35 156 45
192 2 8 11 49 20 90 8 41 24 111 35 155 10 44 35 152 55 240 20 88 39 168 41
178 4 14 0 17 -23 15 -15 -2 -612 -5 -1327 -8z"/>
</g>
</svg>
